<svg width="128" height="128" viewBox="0 0 128 128" fill="none" xmlns="http://www.w3.org/2000/svg">
<path fill-rule="evenodd" clip-rule="evenodd" d="M65.9413 7.16797C64.736 6.5013 63.264 6.5013 62.0587 7.16797L14.0587 33.8346C12.7893 34.544 12 35.8826 12 37.3333C12 38.784 12.7893 40.1226 14.0587 40.832L62.0587 67.4986C63.264 68.1653 64.736 68.1653 65.9413 67.4986L113.941 40.832C115.211 40.1226 116 38.784 116 37.3333C116 35.8826 115.211 34.544 113.941 33.8346L65.9413 7.16797ZM64 15.2426L103.765 37.3333L64 59.424L24.2347 37.3333L64 15.2426Z" fill="black"/>
<path fill-rule="evenodd" clip-rule="evenodd" d="M62.0587 60.5013C60.7893 61.2106 60 62.5493 60 63.9999V117.333C60 118.752 60.752 120.064 61.9733 120.779C63.1947 121.499 64.704 121.52 65.9413 120.832L111.211 95.6853C114.165 94.0319 116 90.9173 116 87.5306V37.3333C116 35.9146 115.248 34.6026 114.027 33.8879C112.805 33.1679 111.296 33.1466 110.059 33.8346L62.0587 60.5013ZM68 66.3519L108 44.1333V87.5306C108 88.0159 107.733 88.4639 107.307 88.6986L68 110.533V66.3519Z" fill="black"/>
<path fill-rule="evenodd" clip-rule="evenodd" d="M68 63.9999C68 62.5493 67.2107 61.2106 65.9413 60.5013L17.9413 33.8346C16.704 33.1466 15.1947 33.1679 13.9733 33.8879C12.752 34.6026 12 35.9146 12 37.3333V87.5306C12 90.9173 13.8347 94.0319 16.7893 95.6853L62.0587 120.832C63.296 121.52 64.8053 121.499 66.0267 120.779C67.248 120.064 68 118.752 68 117.333V63.9999ZM60 66.3519V110.533L20.6933 88.6986C20.2667 88.4639 20 88.0159 20 87.5306V44.1333L60 66.3519Z" fill="black"/>
<path fill-rule="evenodd" clip-rule="evenodd" d="M85.0988 20.0533L38.0001 47.1999C36.0908 48.3039 35.4348 50.7519 36.5334 52.6666C37.6374 54.5759 40.0854 55.2319 42.0001 54.1333L89.0934 26.9866C91.0028 25.8826 91.6641 23.4346 90.5601 21.5253C89.4561 19.6106 87.0081 18.9546 85.0988 20.0533Z" fill="black"/>
</svg>
