<svg width="128" height="128" viewBox="0 0 128 128" fill="none" xmlns="http://www.w3.org/2000/svg">
<path fill-rule="evenodd" clip-rule="evenodd" d="M78.6668 116.059V17.2694C78.6668 14.1761 77.1308 11.2801 74.5655 9.54139C72.0002 7.80805 68.7415 7.45605 65.8668 8.60805L23.2002 25.6747C19.6588 27.0881 17.3335 30.5227 17.3335 34.3414V116.059C17.3335 118.272 19.1255 120.059 21.3335 120.059H74.6668C76.8748 120.059 78.6668 118.272 78.6668 116.059ZM70.6668 17.2694V112.059H25.3335V34.3414C25.3335 33.7921 25.6642 33.3014 26.1708 33.0987L68.8375 16.0321C69.2482 15.8721 69.7122 15.9201 70.0802 16.1654C70.4482 16.4161 70.6668 16.8321 70.6668 17.2694Z" fill="black"/>
<path fill-rule="evenodd" clip-rule="evenodd" d="M110.667 116.059V46.7254C110.667 41.5734 106.485 37.3921 101.333 37.3921C92.2294 37.3921 74.6667 37.3921 74.6667 37.3921C72.4587 37.3921 70.6667 39.1841 70.6667 41.3921V116.059C70.6667 118.272 72.4587 120.059 74.6667 120.059H106.667C108.875 120.059 110.667 118.272 110.667 116.059ZM102.667 46.7254V112.059H78.6667V45.3974L101.333 45.3921C102.069 45.3921 102.667 45.9894 102.667 46.7254Z" fill="black"/>
<path fill-rule="evenodd" clip-rule="evenodd" d="M117.333 112.059H10.6667C8.45875 112.059 6.66675 113.856 6.66675 116.059C6.66675 118.267 8.45875 120.059 10.6667 120.059H117.333C119.541 120.059 121.333 118.267 121.333 116.059C121.333 113.856 119.541 112.059 117.333 112.059Z" fill="black"/>
<path fill-rule="evenodd" clip-rule="evenodd" d="M37.3335 48.0588H58.6668C60.8748 48.0588 62.6668 46.2668 62.6668 44.0588C62.6668 41.8562 60.8748 40.0588 58.6668 40.0588H37.3335C35.1255 40.0588 33.3335 41.8562 33.3335 44.0588C33.3335 46.2668 35.1255 48.0588 37.3335 48.0588Z" fill="black"/>
<path fill-rule="evenodd" clip-rule="evenodd" d="M37.3335 66.7253H58.6668C60.8748 66.7253 62.6668 64.9333 62.6668 62.7253C62.6668 60.5227 60.8748 58.7253 58.6668 58.7253H37.3335C35.1255 58.7253 33.3335 60.5227 33.3335 62.7253C33.3335 64.9333 35.1255 66.7253 37.3335 66.7253Z" fill="black"/>
<path fill-rule="evenodd" clip-rule="evenodd" d="M37.3335 85.3921H58.6668C60.8748 85.3921 62.6668 83.6001 62.6668 81.3921C62.6668 79.1894 60.8748 77.3921 58.6668 77.3921H37.3335C35.1255 77.3921 33.3335 79.1894 33.3335 81.3921C33.3335 83.6001 35.1255 85.3921 37.3335 85.3921Z" fill="black"/>
<path fill-rule="evenodd" clip-rule="evenodd" d="M37.3335 104.059H58.6668C60.8748 104.059 62.6668 102.267 62.6668 100.059C62.6668 97.8559 60.8748 96.0586 58.6668 96.0586H37.3335C35.1255 96.0586 33.3335 97.8559 33.3335 100.059C33.3335 102.267 35.1255 104.059 37.3335 104.059Z" fill="black"/>
</svg>
