<svg width="128" height="128" viewBox="0 0 128 128" fill="none" xmlns="http://www.w3.org/2000/svg">
<path fill-rule="evenodd" clip-rule="evenodd" d="M121.333 37.3333C121.333 33.4453 119.787 29.712 117.04 26.96C114.288 24.2133 110.555 22.6666 106.667 22.6666C86.2293 22.6666 41.7706 22.6666 21.3333 22.6666C17.4453 22.6666 13.712 24.2133 10.96 26.96C8.21329 29.712 6.66663 33.4453 6.66663 37.3333V90.6666C6.66663 94.5546 8.21329 98.288 10.96 101.04C13.712 103.787 17.4453 105.333 21.3333 105.333H106.667C110.555 105.333 114.288 103.787 117.04 101.04C119.787 98.288 121.333 94.5546 121.333 90.6666V37.3333ZM113.333 37.3333V90.6666C113.333 92.4373 112.629 94.128 111.381 95.3813C110.128 96.6293 108.437 97.3333 106.667 97.3333H21.3333C19.5626 97.3333 17.872 96.6293 16.6186 95.3813C15.3706 94.128 14.6666 92.4373 14.6666 90.6666V37.3333C14.6666 35.5626 15.3706 33.872 16.6186 32.6186C17.872 31.3706 19.5626 30.6666 21.3333 30.6666H106.667C108.437 30.6666 110.128 31.3706 111.381 32.6186C112.629 33.872 113.333 35.5626 113.333 37.3333Z" fill="black"/>
<path fill-rule="evenodd" clip-rule="evenodd" d="M105.333 79.9999V74.6666C105.333 69.5093 101.157 65.3333 95.9999 65.3333H90.6666C85.5093 65.3333 81.3333 69.5093 81.3333 74.6666V79.9999C81.3333 85.1573 85.5093 89.3333 90.6666 89.3333H95.9999C101.157 89.3333 105.333 85.1573 105.333 79.9999ZM97.3333 74.6666V79.9999C97.3333 80.7359 96.7359 81.3333 95.9999 81.3333H90.6666C89.9306 81.3333 89.3333 80.7359 89.3333 79.9999V74.6666C89.3333 73.9306 89.9306 73.3333 90.6666 73.3333H95.9999C96.7359 73.3333 97.3333 73.9306 97.3333 74.6666Z" fill="black"/>
<path fill-rule="evenodd" clip-rule="evenodd" d="M117.333 44H10.6666C8.45863 44 6.66663 45.792 6.66663 48C6.66663 50.208 8.45863 52 10.6666 52H117.333C119.541 52 121.333 50.208 121.333 48C121.333 45.792 119.541 44 117.333 44Z" fill="black"/>
<path fill-rule="evenodd" clip-rule="evenodd" d="M48 76H26.6666C24.4586 76 22.6666 77.792 22.6666 80C22.6666 82.208 24.4586 84 26.6666 84H48C50.208 84 52 82.208 52 80C52 77.792 50.208 76 48 76Z" fill="black"/>
</svg>
