<svg width="128" height="128" viewBox="0 0 128 128" fill="none" xmlns="http://www.w3.org/2000/svg">
<path fill-rule="evenodd" clip-rule="evenodd" d="M32 84C25.376 84 20 89.376 20 96C20 102.624 25.376 108 32 108C38.624 108 44 102.624 44 96C44 89.376 38.624 84 32 84ZM32 92C34.208 92 36 93.792 36 96C36 98.208 34.208 100 32 100C29.792 100 28 98.208 28 96C28 93.792 29.792 92 32 92Z" fill="black"/>
<path fill-rule="evenodd" clip-rule="evenodd" d="M90.6667 84C84.0427 84 78.6667 89.376 78.6667 96C78.6667 102.624 84.0427 108 90.6667 108C97.2907 108 102.667 102.624 102.667 96C102.667 89.376 97.2907 84 90.6667 84ZM90.6667 92C92.8747 92 94.6667 93.792 94.6667 96C94.6667 98.208 92.8747 100 90.6667 100C88.4587 100 86.6667 98.208 86.6667 96C86.6667 93.792 88.4587 92 90.6667 92Z" fill="black"/>
<path fill-rule="evenodd" clip-rule="evenodd" d="M24.0001 92H16.0001C15.2641 92 14.6667 91.4027 14.6667 90.6667V76H37.3334C39.5414 76 41.3334 74.208 41.3334 72C41.3334 69.792 39.5414 68 37.3334 68H10.6667C8.45875 68 6.66675 69.792 6.66675 72V90.6667C6.66675 95.824 10.8481 100 16.0001 100H24.0001C26.2081 100 28.0001 98.208 28.0001 96C28.0001 93.792 26.2081 92 24.0001 92Z" fill="black"/>
<path fill-rule="evenodd" clip-rule="evenodd" d="M40 100H82.6667C84.8747 100 86.6667 98.208 86.6667 96C86.6667 93.792 84.8747 92 82.6667 92H40C37.792 92 36 93.792 36 96C36 98.208 37.792 100 40 100Z" fill="black"/>
<path fill-rule="evenodd" clip-rule="evenodd" d="M98.6667 100H112C114.475 100 116.848 99.0187 118.597 97.264C120.352 95.5147 121.333 93.1413 121.333 90.6667C121.333 81.4827 121.333 63.1467 121.333 57.616C121.333 55.7707 120.789 53.9733 119.765 52.4373C117.163 48.528 109.563 37.136 106.245 32.1547C104.512 29.5573 101.6 28 98.48 28H80C77.792 28 76 29.792 76 32C76 34.208 77.792 36 80 36H98.48C98.9227 36 99.3387 36.224 99.5893 36.592L113.109 56.8747C113.253 57.0933 113.333 57.3493 113.333 57.616V90.6667C113.333 91.0187 113.195 91.36 112.944 91.6107C112.693 91.8613 112.352 92 112 92H98.6667C96.4587 92 94.6667 93.792 94.6667 96C94.6667 98.208 96.4587 100 98.6667 100Z" fill="black"/>
<path fill-rule="evenodd" clip-rule="evenodd" d="M6.66675 64V72C6.66675 74.208 8.45875 76 10.6667 76H80.0001C82.2081 76 84.0001 74.208 84.0001 72V24C84.0001 21.792 82.2081 20 80.0001 20H58.6667C56.4587 20 54.6667 21.792 54.6667 24C54.6667 26.208 56.4587 28 58.6667 28H76.0001V68H14.6667V64C14.6667 61.792 12.8747 60 10.6667 60C8.45875 60 6.66675 61.792 6.66675 64Z" fill="black"/>
<path fill-rule="evenodd" clip-rule="evenodd" d="M45.3334 20H10.6667C8.45875 20 6.66675 21.792 6.66675 24C6.66675 26.208 8.45875 28 10.6667 28H45.3334C47.5414 28 49.3334 26.208 49.3334 24C49.3334 21.792 47.5414 20 45.3334 20Z" fill="black"/>
<path fill-rule="evenodd" clip-rule="evenodd" d="M34.6667 33.3334H10.6667C8.45875 33.3334 6.66675 35.1254 6.66675 37.3334C6.66675 39.5414 8.45875 41.3334 10.6667 41.3334H34.6667C36.8747 41.3334 38.6667 39.5414 38.6667 37.3334C38.6667 35.1254 36.8747 33.3334 34.6667 33.3334Z" fill="black"/>
<path fill-rule="evenodd" clip-rule="evenodd" d="M24.0001 46.6666H10.6667C8.45875 46.6666 6.66675 48.4586 6.66675 50.6666C6.66675 52.8746 8.45875 54.6666 10.6667 54.6666H24.0001C26.2081 54.6666 28.0001 52.8746 28.0001 50.6666C28.0001 48.4586 26.2081 46.6666 24.0001 46.6666Z" fill="black"/>
<path fill-rule="evenodd" clip-rule="evenodd" d="M109.333 41.3334H96C93.792 41.3334 92 43.1254 92 45.3334V66.6667C92 68.8747 93.792 70.6667 96 70.6667H117.333C119.541 70.6667 121.333 68.8747 121.333 66.6667C121.333 64.4587 119.541 62.6667 117.333 62.6667H100V49.3334H109.333C111.541 49.3334 113.333 47.5414 113.333 45.3334C113.333 43.1254 111.541 41.3334 109.333 41.3334Z" fill="black"/>
</svg>
