<svg width="128" height="128" viewBox="0 0 128 128" fill="none" xmlns="http://www.w3.org/2000/svg">
<path fill-rule="evenodd" clip-rule="evenodd" d="M70.5974 111.819L111.019 71.4026C124.773 57.648 124.773 35.312 111.019 21.5573C98.1708 8.7093 77.8348 7.8613 64.0001 19.0133C50.1654 7.8613 29.8294 8.7093 16.9814 21.5573C3.28011 35.2586 3.22677 57.472 16.8214 71.2373L57.4028 111.819C59.1521 113.568 61.5254 114.549 64.0001 114.549C66.4748 114.549 68.8481 113.568 70.5974 111.819ZM64.9441 106.16C64.6934 106.411 64.3521 106.549 64.0001 106.549C63.6481 106.549 63.3068 106.411 63.0561 106.16L22.5121 65.6106C12.0054 54.9706 12.0534 37.8026 22.6401 27.2106C33.2748 16.5813 50.5388 16.5813 61.1734 27.2106C62.7361 28.7733 65.2641 28.7733 66.8268 27.2106C77.4614 16.5813 94.7254 16.5813 105.36 27.2106C115.995 37.8453 115.995 55.1093 105.36 65.744L64.9441 106.16Z" fill="black"/>
</svg>
