<svg width="128" height="128" viewBox="0 0 128 128" fill="none" xmlns="http://www.w3.org/2000/svg">
<path fill-rule="evenodd" clip-rule="evenodd" d="M64 6.66675C44.144 6.66675 28 22.9547 28 43.0454C28 49.8507 30.9973 58.2934 35.36 66.7147C44.9653 85.2587 60.9653 103.936 60.9653 103.936C61.7227 104.821 62.832 105.333 64 105.333C65.168 105.333 66.2773 104.821 67.0347 103.936C67.0347 103.936 83.0347 85.2587 92.64 66.7147C97.0027 58.2934 100 49.8507 100 43.0454C100 22.9547 83.856 6.66675 64 6.66675ZM64 14.6667C79.4667 14.6667 92 27.3974 92 43.0454C92 50.8641 87.04 61.0507 81.312 70.5494C75.168 80.7361 67.9787 90.0907 64 95.0401C60.0213 90.0907 52.832 80.7361 46.688 70.5494C40.96 61.0507 36 50.8641 36 43.0454C36 27.3974 48.5333 14.6667 64 14.6667Z" fill="black"/>
<path fill-rule="evenodd" clip-rule="evenodd" d="M64 28C55.904 28 49.3334 34.5707 49.3334 42.6667C49.3334 50.7627 55.904 57.3333 64 57.3333C72.096 57.3333 78.6667 50.7627 78.6667 42.6667C78.6667 34.5707 72.096 28 64 28ZM64 36C67.68 36 70.6667 38.9867 70.6667 42.6667C70.6667 46.3467 67.68 49.3333 64 49.3333C60.32 49.3333 57.3334 46.3467 57.3334 42.6667C57.3334 38.9867 60.32 36 64 36Z" fill="black"/>
<path fill-rule="evenodd" clip-rule="evenodd" d="M89.5147 92.6775C93.8507 93.9788 97.424 95.5895 99.8934 97.4775C101.493 98.6935 102.667 99.8828 102.667 101.333C102.667 102.187 102.181 102.96 101.499 103.734C100.368 105.008 98.688 106.155 96.608 107.221C89.2587 110.981 77.376 113.333 64 113.333C50.624 113.333 38.7414 110.981 31.392 107.221C29.312 106.155 27.632 105.008 26.5014 103.734C25.8187 102.96 25.3334 102.187 25.3334 101.333C25.3334 99.8828 26.5067 98.6935 28.1067 97.4775C30.576 95.5895 34.1494 93.9788 38.4854 92.6775C40.5974 92.0428 41.7974 89.8082 41.1627 87.6962C40.528 85.5788 38.2934 84.3788 36.1814 85.0135C29.5787 87.0028 24.448 89.7282 21.3654 92.7415C18.656 95.3815 17.3334 98.3362 17.3334 101.333C17.3334 105.077 19.4507 108.811 23.7547 111.925C31.3067 117.387 46.4747 121.333 64 121.333C81.5254 121.333 96.6934 117.387 104.245 111.925C108.549 108.811 110.667 105.077 110.667 101.333C110.667 98.3362 109.344 95.3815 106.635 92.7415C103.552 89.7282 98.4214 87.0028 91.8187 85.0135C89.7067 84.3788 87.472 85.5788 86.8374 87.6962C86.2027 89.8082 87.4027 92.0428 89.5147 92.6775Z" fill="black"/>
</svg>
