<svg width="128" height="128" viewBox="0 0 128 128" fill="none" xmlns="http://www.w3.org/2000/svg">
<path fill-rule="evenodd" clip-rule="evenodd" d="M110.667 21.3334C110.667 17.4454 109.12 13.7121 106.373 10.9601C103.621 8.21342 99.8878 6.66675 95.9998 6.66675C78.6718 6.66675 45.0292 6.66675 31.9998 6.66675C29.5252 6.66675 27.1518 7.64808 25.4025 9.40275C23.6478 11.1521 22.6665 13.5254 22.6665 16.0001V112C22.6665 114.475 23.6478 116.848 25.4025 118.597C27.1518 120.352 29.5252 121.333 31.9998 121.333H95.9998C99.8878 121.333 103.621 119.787 106.373 117.04C109.12 114.288 110.667 110.555 110.667 106.667V21.3334ZM102.667 21.3334V106.667C102.667 108.437 101.963 110.128 100.715 111.381C99.4612 112.629 97.7705 113.333 95.9998 113.333H31.9998C31.6478 113.333 31.3065 113.195 31.0558 112.944C30.8052 112.693 30.6665 112.352 30.6665 112V16.0001C30.6665 15.6481 30.8052 15.3067 31.0558 15.0561C31.3065 14.8054 31.6478 14.6667 31.9998 14.6667H95.9998C97.7705 14.6667 99.4612 15.3707 100.715 16.6187C101.963 17.8721 102.667 19.5627 102.667 21.3334Z" fill="black"/>
<path fill-rule="evenodd" clip-rule="evenodd" d="M44 10.6667V117.333C44 119.541 45.792 121.333 48 121.333C50.208 121.333 52 119.541 52 117.333V10.6667C52 8.45875 50.208 6.66675 48 6.66675C45.792 6.66675 44 8.45875 44 10.6667Z" fill="black"/>
<path fill-rule="evenodd" clip-rule="evenodd" d="M31.9999 28H21.3333C19.1253 28 17.3333 29.792 17.3333 32C17.3333 34.208 19.1253 36 21.3333 36H31.9999C34.2079 36 35.9999 34.208 35.9999 32C35.9999 29.792 34.2079 28 31.9999 28Z" fill="black"/>
<path fill-rule="evenodd" clip-rule="evenodd" d="M31.9999 60H21.3333C19.1253 60 17.3333 61.792 17.3333 64C17.3333 66.208 19.1253 68 21.3333 68H31.9999C34.2079 68 35.9999 66.208 35.9999 64C35.9999 61.792 34.2079 60 31.9999 60Z" fill="black"/>
<path fill-rule="evenodd" clip-rule="evenodd" d="M31.9999 92H21.3333C19.1253 92 17.3333 93.792 17.3333 96C17.3333 98.208 19.1253 100 21.3333 100H31.9999C34.2079 100 35.9999 98.208 35.9999 96C35.9999 93.792 34.2079 92 31.9999 92Z" fill="black"/>
<path fill-rule="evenodd" clip-rule="evenodd" d="M69.3333 36H85.3333C87.5413 36 89.3333 34.208 89.3333 32C89.3333 29.792 87.5413 28 85.3333 28H69.3333C67.1253 28 65.3333 29.792 65.3333 32C65.3333 34.208 67.1253 36 69.3333 36Z" fill="black"/>
</svg>
