<svg width="128" height="128" viewBox="0 0 128 128" fill="none" xmlns="http://www.w3.org/2000/svg">
<path fill-rule="evenodd" clip-rule="evenodd" d="M84.0001 16.0001V117.333C84.0001 119.541 82.2081 121.333 80.0001 121.333H16.0001C13.5254 121.333 11.1521 120.352 9.40275 118.597C7.64808 116.848 6.66675 114.475 6.66675 112V16.0001C6.66675 13.5254 7.64808 11.1521 9.40275 9.40275C11.1521 7.64808 13.5254 6.66675 16.0001 6.66675H74.6668C77.1414 6.66675 79.5148 7.64808 81.2641 9.40275C83.0188 11.1521 84.0001 13.5254 84.0001 16.0001ZM76.0001 16.0001C76.0001 15.6481 75.8614 15.3067 75.6108 15.0561C75.3601 14.8054 75.0188 14.6667 74.6668 14.6667H16.0001C15.6481 14.6667 15.3067 14.8054 15.0561 15.0561C14.8054 15.3067 14.6667 15.6481 14.6667 16.0001V112C14.6667 112.352 14.8054 112.693 15.0561 112.944C15.3067 113.195 15.6481 113.333 16.0001 113.333H76.0001V16.0001Z" fill="black"/>
<path fill-rule="evenodd" clip-rule="evenodd" d="M62.6667 82.6667V117.333C62.6667 119.541 60.8747 121.333 58.6667 121.333H32C29.792 121.333 28 119.541 28 117.333V82.6667C28 80.896 28.704 79.2053 29.952 77.952C31.2053 76.704 32.9013 76 34.6667 76H56C57.7653 76 59.4613 76.704 60.7147 77.952C61.9627 79.2053 62.6667 80.896 62.6667 82.6667ZM36 84V113.333H54.6667V84H36Z" fill="black"/>
<path fill-rule="evenodd" clip-rule="evenodd" d="M121.333 48.0001V112C121.333 117.157 117.152 121.333 112 121.333H80C77.792 121.333 76 119.541 76 117.333V42.6667C76 40.4587 77.792 38.6667 80 38.6667H112C117.152 38.6667 121.333 42.8427 121.333 48.0001ZM113.333 48.0001C113.333 47.2641 112.736 46.6667 112 46.6667H84V113.333H112C112.736 113.333 113.333 112.736 113.333 112V48.0001Z" fill="black"/>
<path fill-rule="evenodd" clip-rule="evenodd" d="M25.3335 24H33.3335V32H25.3335V24Z" fill="black"/>
<path fill-rule="evenodd" clip-rule="evenodd" d="M25.3335 42.6667H33.3335V50.6667H25.3335V42.6667Z" fill="black"/>
<path fill-rule="evenodd" clip-rule="evenodd" d="M25.3335 61.3335H33.3335V69.3335H25.3335V61.3335Z" fill="black"/>
<path fill-rule="evenodd" clip-rule="evenodd" d="M41.3335 24H49.3335V32H41.3335V24Z" fill="black"/>
<path fill-rule="evenodd" clip-rule="evenodd" d="M41.3335 42.6667H49.3335V50.6667H41.3335V42.6667Z" fill="black"/>
<path fill-rule="evenodd" clip-rule="evenodd" d="M41.3335 61.3335H49.3335V69.3335H41.3335V61.3335Z" fill="black"/>
<path fill-rule="evenodd" clip-rule="evenodd" d="M57.3335 24H65.3335V32H57.3335V24Z" fill="black"/>
<path fill-rule="evenodd" clip-rule="evenodd" d="M94.6667 57.3335H102.667V65.3335H94.6667V57.3335Z" fill="black"/>
<path fill-rule="evenodd" clip-rule="evenodd" d="M94.6667 76H102.667V84H94.6667V76Z" fill="black"/>
<path fill-rule="evenodd" clip-rule="evenodd" d="M94.6667 94.6667H102.667V102.667H94.6667V94.6667Z" fill="black"/>
<path fill-rule="evenodd" clip-rule="evenodd" d="M57.3335 42.6667H65.3335V50.6667H57.3335V42.6667Z" fill="black"/>
<path fill-rule="evenodd" clip-rule="evenodd" d="M57.3335 61.3335H65.3335V69.3335H57.3335V61.3335Z" fill="black"/>
</svg>
