<svg width="128" height="128" viewBox="0 0 128 128" fill="none" xmlns="http://www.w3.org/2000/svg">
<path fill-rule="evenodd" clip-rule="evenodd" d="M37.3333 68H90.6666C92.8746 68 94.6666 66.208 94.6666 64C94.6666 61.792 92.8746 60 90.6666 60H37.3333C35.1253 60 33.3333 61.792 33.3333 64C33.3333 66.208 35.1253 68 37.3333 68Z" fill="black"/>
<path fill-rule="evenodd" clip-rule="evenodd" d="M37.3333 89.3333H90.6666C92.8746 89.3333 94.6666 87.5413 94.6666 85.3333C94.6666 83.1253 92.8746 81.3333 90.6666 81.3333H37.3333C35.1253 81.3333 33.3333 83.1253 33.3333 85.3333C33.3333 87.5413 35.1253 89.3333 37.3333 89.3333Z" fill="black"/>
<path fill-rule="evenodd" clip-rule="evenodd" d="M37.3333 46.6666H90.6666C92.8746 46.6666 94.6666 44.8746 94.6666 42.6666C94.6666 40.4586 92.8746 38.6666 90.6666 38.6666H37.3333C35.1253 38.6666 33.3333 40.4586 33.3333 42.6666C33.3333 44.8746 35.1253 46.6666 37.3333 46.6666Z" fill="black"/>
</svg>
