<svg width="128" height="128" viewBox="0 0 128 128" fill="none" xmlns="http://www.w3.org/2000/svg">
<path fill-rule="evenodd" clip-rule="evenodd" d="M56.0001 6.66663C28.7734 6.66663 6.66675 28.7733 6.66675 56C6.66675 83.2266 28.7734 105.333 56.0001 105.333C83.2268 105.333 105.333 83.2266 105.333 56C105.333 28.7733 83.2268 6.66663 56.0001 6.66663ZM56.0001 14.6666C78.8107 14.6666 97.3334 33.1893 97.3334 56C97.3334 78.8106 78.8107 97.3333 56.0001 97.3333C33.1894 97.3333 14.6667 78.8106 14.6667 56C14.6667 33.1893 33.1894 14.6666 56.0001 14.6666Z" fill="black"/>
<path fill-rule="evenodd" clip-rule="evenodd" d="M120.16 114.507L90.88 85.2213C89.3173 83.6586 86.784 83.6586 85.2213 85.2213C83.6586 86.784 83.6586 89.3173 85.2213 90.88L114.507 120.16C116.064 121.723 118.603 121.723 120.16 120.16C121.723 118.603 121.723 116.064 120.16 114.507Z" fill="black"/>
</svg>
