<svg width="128" height="128" viewBox="0 0 128 128" fill="none" xmlns="http://www.w3.org/2000/svg">
<path fill-rule="evenodd" clip-rule="evenodd" d="M103.157 44.5334L107.424 108.533C107.643 111.851 106.48 115.104 104.213 117.531C101.941 119.957 98.768 121.333 95.4507 121.333H32.5494C29.232 121.333 26.0587 119.957 23.7867 117.531C21.52 115.104 20.3574 111.851 20.576 108.533L24.8427 44.5334C25.264 38.2294 30.5014 33.3334 36.816 33.3334H91.184C97.4987 33.3334 102.736 38.2294 103.157 44.5334ZM95.1734 45.0667C95.0347 42.9654 93.2907 41.3334 91.184 41.3334H36.816C34.7094 41.3334 32.9654 42.9654 32.8267 45.0667L28.56 109.067C28.4854 110.171 28.8747 111.259 29.632 112.064C30.384 112.875 31.4454 113.333 32.5494 113.333H95.4507C96.5547 113.333 97.616 112.875 98.368 112.064C99.1254 111.259 99.5147 110.171 99.44 109.067L95.1734 45.0667Z" fill="black"/>
<path fill-rule="evenodd" clip-rule="evenodd" d="M86.6667 37.3334C86.6667 39.5414 84.8747 41.3334 82.6667 41.3334C80.4587 41.3334 78.6667 39.5414 78.6667 37.3334V29.3334C78.6667 21.232 72.1014 14.6667 64 14.6667C55.8987 14.6667 49.3334 21.232 49.3334 29.3334V37.3334C49.3334 39.5414 47.5414 41.3334 45.3334 41.3334C43.1254 41.3334 41.3334 39.5414 41.3334 37.3334V29.3334C41.3334 16.816 51.4827 6.66669 64 6.66669C76.5174 6.66669 86.6667 16.816 86.6667 29.3334V37.3334Z" fill="black"/>
<path fill-rule="evenodd" clip-rule="evenodd" d="M77.2587 56.9493C78.2027 54.9547 80.592 54.1067 82.5867 55.056C84.5814 56 85.4294 58.3893 84.4854 60.384C80.848 68.0427 73.04 73.3333 64 73.3333C54.96 73.3333 47.152 68.0427 43.5147 60.384C42.5707 58.3893 43.4187 56 45.4134 55.056C47.408 54.1067 49.7974 54.9547 50.7414 56.9493C53.0987 61.904 58.1494 65.3333 64 65.3333C69.8507 65.3333 74.9014 61.904 77.2587 56.9493Z" fill="black"/>
</svg>
