<svg width="128" height="128" viewBox="0 0 128 128" fill="none" xmlns="http://www.w3.org/2000/svg">
<path fill-rule="evenodd" clip-rule="evenodd" d="M47.2 78.8747C37.6373 82.352 32.6986 92.944 36.1813 102.507C39.6586 112.069 50.2506 117.008 59.8133 113.531C69.376 110.048 74.3146 99.456 70.8373 89.8933C67.3546 80.3307 56.7626 75.392 47.2 78.8747ZM49.936 86.3893C55.3493 84.4213 61.3493 87.216 63.3173 92.6293C65.2906 98.0427 62.4906 104.043 57.0773 106.011C51.664 107.984 45.6693 105.189 43.696 99.7707C41.728 94.3573 44.5226 88.3627 49.936 86.3893Z" fill="black"/>
<path fill-rule="evenodd" clip-rule="evenodd" d="M52.3252 81.264C52.3252 81.264 37.6906 41.0453 33.9092 30.6667C32.9012 27.8933 30.5759 25.8133 27.7172 25.1147L11.4826 21.1627C9.33857 20.64 7.17324 21.9573 6.65057 24.1013C6.12791 26.2453 7.44524 28.4107 9.58924 28.9333L25.8186 32.8907C26.0852 32.9547 26.2986 33.1467 26.3946 33.4027L44.8106 84C45.5626 86.0747 47.8612 87.1467 49.9359 86.3893C52.0106 85.6373 53.0826 83.3387 52.3252 81.264Z" fill="black"/>
<path fill-rule="evenodd" clip-rule="evenodd" d="M68.4427 95.0241L118.704 76.7307C120.773 75.9734 121.845 73.6747 121.093 71.6054C120.336 69.5307 118.037 68.4587 115.963 69.2107L65.7067 87.5041C63.632 88.2614 62.5653 90.5547 63.3173 92.6294C64.0747 94.7041 66.368 95.7761 68.4427 95.0241Z" fill="black"/>
<path fill-rule="evenodd" clip-rule="evenodd" d="M96.3092 19.1574C95.5092 16.96 93.8719 15.168 91.7545 14.1814C89.6372 13.1947 87.2105 13.088 85.0132 13.888C77.1839 16.736 61.1839 22.56 53.3545 25.4134C51.1572 26.208 49.3652 27.8507 48.3785 29.968C47.3919 32.0854 47.2852 34.512 48.0852 36.7094C50.9385 44.5387 56.7572 60.5387 59.6105 68.368C60.4105 70.5654 62.0479 72.352 64.1652 73.344C66.2879 74.3307 68.7092 74.4374 70.9065 73.6374C78.7359 70.784 94.7359 64.9654 102.565 62.112C104.763 61.312 106.555 59.6747 107.541 57.5574C108.528 55.4347 108.635 53.0134 107.835 50.816L96.3092 19.1574ZM88.7945 21.8934L100.32 53.5521C100.389 53.7547 100.384 53.9787 100.288 54.176C100.197 54.368 100.032 54.5227 99.8292 54.5974L68.1705 66.1174C67.9679 66.192 67.7439 66.1814 67.5465 66.0907C67.3545 66 67.1999 65.8347 67.1252 65.632L55.6052 33.9734C55.5305 33.7707 55.5412 33.5467 55.6319 33.3494C55.7225 33.152 55.8879 33.0027 56.0905 32.928L87.7492 21.4027C87.9519 21.3334 88.1759 21.3387 88.3732 21.4294C88.5705 21.5254 88.7199 21.6907 88.7945 21.8934Z" fill="black"/>
<path fill-rule="evenodd" clip-rule="evenodd" d="M66.7946 24.7787L71.3652 37.3387C72.1226 39.4134 74.4212 40.4854 76.4906 39.7334C78.5652 38.976 79.6372 36.6774 78.8852 34.6027L74.3092 22.0374C73.5572 19.968 71.2586 18.896 69.1839 19.648C67.1092 20.4054 66.0372 22.704 66.7946 24.7787Z" fill="black"/>
</svg>
