<svg width="128" height="128" viewBox="0 0 128 128" fill="none" xmlns="http://www.w3.org/2000/svg">
<path fill-rule="evenodd" clip-rule="evenodd" d="M64.0002 6.66669C80.9282 6.66669 94.6668 20.4054 94.6668 37.3334C94.6668 54.2614 80.9282 68 64.0002 68C47.0722 68 33.3335 54.2614 33.3335 37.3334C33.3335 20.4054 47.0722 6.66669 64.0002 6.66669ZM64.0002 14.6667C51.4882 14.6667 41.3335 24.8214 41.3335 37.3334C41.3335 49.8454 51.4882 60 64.0002 60C76.5122 60 86.6668 49.8454 86.6668 37.3334C86.6668 24.8214 76.5122 14.6667 64.0002 14.6667Z" fill="black"/>
<path fill-rule="evenodd" clip-rule="evenodd" d="M113.333 112C113.333 117.152 109.157 121.333 104 121.333H24.0001C18.8427 121.333 14.6667 117.152 14.6667 112C14.6667 89.1734 33.1734 70.6667 56.0001 70.6667H72.0001C94.8268 70.6667 113.333 89.1734 113.333 112ZM109.445 115.888C109.376 115.915 109.333 115.947 109.333 116L109.445 115.888ZM22.6667 112C22.6667 112.736 23.2641 113.333 24.0001 113.333H104C104.731 113.333 105.323 112.747 105.333 112C105.333 93.5894 90.4107 78.6667 72.0001 78.6667H56.0001C37.5894 78.6667 22.6667 93.5894 22.6667 112Z" fill="black"/>
</svg>
